@startuml ER

skinparam class {
  backgroundColor white
  backgroundColor<<sense>> #e8f5fc
  backgroundColor<<sense_frame>> #f9ecf9
  backgroundColor<<lexical_unit>> #f9ffe6
  backgroundColor<<syntactic_structure>> #f9f2ec
  backgroundColor<<morphological>> #e6ffe6
  backgroundColor<<example>> #ffffe6
  backgroundColor<<feature>> #f2f2f2
  backgroundColor<<multilingual>> #ffe6e6
  backgroundColor<<connections>> #fff0e6
  borderColor black
  borderColor<<sense>> #5FB8EC
  borderColor<<sense_frame>> #d477d4
  borderColor<<lexical_unit>> #9ccc00
  borderColor<<syntactic_structure>> #996633
  borderColor<<morphological>> #00b300
  borderColor<<example>> #cccc00
  borderColor<<feature>> #737373
  borderColor<<multilingual>> #b30000
  borderColor<<connections>> #e65c00
  arrowColor black
}

skinparam rectangle {
  backgroundColor white
  borderColor<<sense>> #5FB8EC
  borderColor<<sense_frame>> #d477d4
  borderColor<<lexical_unit>> #9ccc00
  borderColor<<syntactic_structure>> #996633
  borderColor<<morphological>> #00b300
  borderColor<<example>> #cccc00
  borderColor<<feature>> #737373
  borderColor<<multilingual>> #b30000
  borderColor<<connections>> #e65c00
}

skinparam backgroundcolor transparent
'left to right direction
hide circle
hide stereotype
'hide members


rectangle "<color:#d477d4>sense frames" <<sense_frame>> {

  entity "<U+0020>**sense_frame_component_subrole** " as sense_frame_component_subrole <<sense_frame>> {
    id: INT <<PK>>
    --
    name: VARCHAR(45)
  }

  entity "<U+0020>**frame_component_type** " as frame_component_type <<sense_frame>> {
    id: INT <<PK>>
    --
    name: VARCHAR(45)
  }

  entity "<U+0020>**sense_frame** " as sense_frame <<sense_frame>> {
    id: INT <<PK>>
    <color:#gray>sense_id: INT <<FK>>
    <color:#gray>frame_id: INT <<FK>>
  }

  entity "<U+0020>**frame_component** " as frame_component <<sense_frame>> {
    id: INT <<PK>>
    <color:#gray>frame_id: INT <<FK>>
    <color:#gray>type_id: INT <<FK>>
  }

  entity "<U+0020>**sense_frame_component** " as sense_frame_component <<sense_frame>> {
    <color:red>id: INT <<PK>>
    <color:#gray>sense_frame_id: INT <<FK>>
    <color:#gray>component_id: INT <<FK>>
    <color:#gray>subrole_id: INT <<FK>>
  }

  entity "<color:red><U+0020>**frame** " as frame <<sense_frame>> {
    id: INT <<PK>>
  }

  sense_frame_component }|-left-|| sense_frame_component_subrole
  sense_frame_component  }|--|| frame_component
  sense_frame_component }|--|| sense_frame

  frame_component }|-left-|| frame_component_type
  frame_component }|--|| frame
  
  sense_frame }|--|| frame
}

entity "<U+0020>**sense** " as sense <<sense>> {
  id: INT <<PK>>
  <color:#gray>lexical_unit_id: INT <<FK>>
  --
  position: INT
}

sense_frame }|.right.|| sense

@enduml